<svg xmlns="http://www.w3.org/2000/svg" viewBox="0 0 1000 606">
  <path fill="#016FD0" d="M1000 506.2c0 55.2-44.8 100-100 100H100c-55.2 0-100-44.8-100-100v-406.4c0-55.2 44.8-100 100-100h800c55.2 0 100 44.8 100 100v406.4z"/>
  <path fill="#FFF" d="M621.4 302.5l-49.2-120.6h-97.3v175.5l-69.2-175.5h-83.6l-70.3 159.6v-159.6h-117.3l-22.5 51.8h-59.6l-22.5-51.8h-91.7l104.9 243.7h98.5l24.8-58.4h59.6l24.8 58.4h119.6v-177.8l64.8 177.8h68.1l64.8-176.6v176.6h92.6v-243.7h-40.5zm-428.2 131.9h-33.7l-55.9-131.9h44.8l33.7 82.5 33.7-82.5h44.8l-67.4 131.9zm158.4-131.9h-132v243.7h132v-51.8h-79.2v-46.2h77.1v-51.8h-77.1v-42.1h79.2v-51.8zm193.3 0h-66.9l-84.7 91.5v-91.5h-132v243.7h132v-91.5l84.7 91.5h66.9l-97.3-121.8 97.3-121.9z"/>
</svg>