<svg xmlns="http://www.w3.org/2000/svg" viewBox="0 0 1000 618">
  <path fill="#FF5F00" d="M380 11.5h240v595h-240z"/>
  <path fill="#EB001B" d="M400 309c0-120 55.7-226.8 142.5-296C483.8-37.7 403.8-11.5 337 37.2 237.5 110.8 175 202.5 175 309s62.5 198.2 162 271.8c66.8 48.7 146.8 74.9 205.5 23.2C455.7 535.8 400 429 400 309z"/>
  <path fill="#F79E1B" d="M1000 309c0 106.5-62.5 198.2-162 271.8-66.8 48.7-146.8 74.9-205.5 23.2 86.8-69.2 142.5-176 142.5-296S719.3 82.2 632.5 13C691.2-38.7 771.2-12.5 838 36.2 937.5 109.8 1000 202.5 1000 309z"/>
</svg>