<svg xmlns="http://www.w3.org/2000/svg" viewBox="0 0 1000 296">
  <path fill="#253B80" d="M66.4 0h174.2c34.3 0 59.3 7 75.1 21.1 15.8 14.1 23.7 35.5 23.7 64.2 0 28.7-8.2 52.4-24.6 71.1-16.4 18.7-39.1 28-68.1 28h-37.8c-5.3 0-9.9 1.9-13.8 5.8-3.9 3.9-6.2 8.6-6.9 14.1l-10.1 64.2-2.9 18.2c-.7 4.6-3.2 8.3-7.5 11.3-4.3 2.9-9 4.4-14.1 4.4H66.4c-4.6 0-7.7-1.7-9.2-5-1.5-3.3-1.5-7.2 0-11.8l65.9-417.7c1.5-9.2 7.7-13.8 18.5-13.8h.2z"/>
  <path fill="#179BD7" d="M349.9 0h174.2c34.3 0 59.3 7 75.1 21.1 15.8 14.1 23.7 35.5 23.7 64.2 0 28.7-8.2 52.4-24.6 71.1-16.4 18.7-39.1 28-68.1 28h-37.8c-5.3 0-9.9 1.9-13.8 5.8-3.9 3.9-6.2 8.6-6.9 14.1l-10.1 64.2-2.9 18.2c-.7 4.6-3.2 8.3-7.5 11.3-4.3 2.9-9 4.4-14.1 4.4h-87.1c-4.6 0-7.7-1.7-9.2-5-1.5-3.3-1.5-7.2 0-11.8l65.9-417.7c1.5-9.2 7.7-13.8 18.5-13.8h.2z"/>
  <path fill="#253B80" d="M894.3 78.9c0 38.4-16.9 69.5-50.8 93.3-33.8 23.7-79.2 35.6-136.1 35.6h-42.1c-10 0-16.7 5-20.2 15l-14.1 89.5c-1.2 7.7-4.8 13.6-10.9 17.9-6.1 4.3-12.9 6.4-20.5 6.4h-60.1c-8.9 0-14.8-3.1-17.6-9.2-2.9-6.1-2.4-13.1 1.4-20.8l11.5-73.1c1-6.3 3.6-11.3 7.8-15 4.3-3.6 9.4-5.5 15.3-5.5h42.1c56.9 0 102.3-11.9 136.1-35.6 33.8-23.7 50.8-54.8 50.8-93.3 0-16.7-3.6-30.7-10.9-42.1-7.2-11.5-17.6-19.8-31.1-25.1 9.4 3.9 17.7 8.9 24.9 15.3 15.3 13.4 23 32.6 23 57.7z"/>
  <path fill="#179BD7" d="M701.5 78.9c0 38.4-16.9 69.5-50.8 93.3-33.8 23.7-79.2 35.6-136.1 35.6h-42.1c-10 0-16.7 5-20.2 15l-14.1 89.5c-1.2 7.7-4.8 13.6-10.9 17.9-6.1 4.3-12.9 6.4-20.5 6.4h-60.1c-8.9 0-14.8-3.1-17.6-9.2-2.9-6.1-2.4-13.1 1.4-20.8l11.5-73.1c1-6.3 3.6-11.3 7.8-15 4.3-3.6 9.4-5.5 15.3-5.5h42.1c56.9 0 102.3-11.9 136.1-35.6 33.8-23.7 50.8-54.8 50.8-93.3 0-16.7-3.6-30.7-10.9-42.1-7.2-11.5-17.6-19.8-31.1-25.1 9.4 3.9 17.7 8.9 24.9 15.3 15.3 13.4 23 32.6 23 57.7z"/>
  <path fill="#253B80" d="M158.2 92.7c0-12.9 6.4-23.4 19.1-31.4 12.7-8 29.2-12 49.3-12h98.6c9.4 0 18.9.8 28.5 2.3 9.6 1.5 19.3 4 29.1 7.5 4.8 1.7 8.9 3.6 12.1 5.8 3.2 2.2 6.1 4.6 8.6 7.5-4.3-21.3-15.8-37.5-34.4-48.5-18.6-11-42.1-16.5-70.4-16.5h-174.2c-10.8 0-17 4.6-18.5 13.8l-65.9 417.7c-1.5 4.6-1.5 8.5 0 11.8 1.5 3.3 4.6 5 9.2 5h87.1l21.8-138.5-1.5-9.2c1.5-9.2 7.7-13.8 18.5-13.8h37.8c29 0 51.7-9.4 68.1-28 16.4-18.7 24.6-42.4 24.6-71.1 0-16.9-3.2-31.1-9.5-42.6-2.9 15.3-9.9 27.8-21 37.3-14.6 12.5-33.8 18.7-57.4 18.7h-45.6c-10.8 0-17-4.6-18.5-13.8l-25.5-162.2z"/>
  <path fill="#179BD7" d="M441.7 92.7c0-12.9 6.4-23.4 19.1-31.4 12.7-8 29.2-12 49.3-12h98.6c9.4 0 18.9.8 28.5 2.3 9.6 1.5 19.3 4 29.1 7.5 4.8 1.7 8.9 3.6 12.1 5.8 3.2 2.2 6.1 4.6 8.6 7.5-4.3-21.3-15.8-37.5-34.4-48.5-18.6-11-42.1-16.5-70.4-16.5h-174.2c-10.8 0-17 4.6-18.5 13.8l-65.9 417.7c-1.5 4.6-1.5 8.5 0 11.8 1.5 3.3 4.6 5 9.2 5h87.1l21.8-138.5-1.5-9.2c1.5-9.2 7.7-13.8 18.5-13.8h37.8c29 0 51.7-9.4 68.1-28 16.4-18.7 24.6-42.4 24.6-71.1 0-16.9-3.2-31.1-9.5-42.6-2.9 15.3-9.9 27.8-21 37.3-14.6 12.5-33.8 18.7-57.4 18.7h-45.6c-10.8 0-17-4.6-18.5-13.8l-25.5-162.2z"/>
</svg>