<svg xmlns="http://www.w3.org/2000/svg" viewBox="0 0 1000 324.68">
  <path fill="#00579f" d="M651.17,0c-70.64,0-133.76,37.46-133.76,98.6,0,72.73,113.42,77.5,113.42,114,0,15.4-17.41,29.2-46.62,29.2-39.39,0-68.78-17.86-68.78-17.86l-12.77,60c0,0,33.95,15,78.65,15,66.48,0,139.12-34.77,139.12-102.74,0-78.53-113.73-83.74-113.73-116.4,0-12.19,14.61-25.53,45.77-25.53,34.8,0,62.79,14.24,62.79,14.24l12.32-57.34c0,0-30.65-11.17-76.41-11.17Z"/>
  <path fill="#00579f" d="M2.55,5.45L0,20.93C0,20.93,29.6,28.9,56.09,41.59l160.67,283.09h108.43L440.68,5.45h-89.8l-78.67,200.39c-1.85,5.89-5.55,8.62-10.42,8.62-8.59,0-67.3-35.66-67.3-35.66-16.54-9.3-26.08-19.37-26.08-19.37L208.32,5.45H117.62L2.55,5.45Z"/>
  <path fill="#faa61a" d="M875.7,5.45l-84.35,319.23h85.74l84.35-319.23h-85.74Z"/>
  <path fill="#faa61a" d="M787.22,5.45l-106.13,219.29-45.38-152.32c-5.24-17.4-20.42-66.97-66.37-66.97H442.2l-2.55,12.43c0,0,30.16,6.24,65.37,27.32,31.74,19.04,33.95,30.08,38.58,45.2l64.59,234.28h89.8L828.9,5.45h-41.68Z"/>
</svg>