<?xml version="1.0" encoding="UTF-8"?>
<svg width="512" height="512" viewBox="0 0 512 512" xmlns="http://www.w3.org/2000/svg">
  <!-- Dottore -->
  <g fill="none" stroke="#000" stroke-width="12" stroke-linecap="round" stroke-linejoin="round">
    <!-- Testa e capelli -->
    <circle cx="256" cy="120" r="70" fill="#f5f5f5"/>
    <path d="M200 90c0 0 10-40 56-40 46 0 56 40 56 40" fill="#333"/>
    
    <!-- Viso -->
    <circle cx="230" cy="110" r="6" fill="#000" stroke="none"/>
    <circle cx="282" cy="110" r="6" fill="#000" stroke="none"/>
    <path d="M240 140c10 5 22 5 32 0" stroke-width="6"/>
    
    <!-- Stetoscopio -->
    <path d="M220 190v40c0 0-20 10-20 30s20 30 20 30h72c0 0 20-10 20-30s-20-30-20-30v-40" fill="#f5f5f5"/>
    <circle cx="256" cy="250" r="15" fill="#3498db"/>
    <path d="M256 265v60" stroke="#3498db"/>
    <path d="M226 325h60" stroke="#3498db"/>
    <path d="M226 325c0 0-20 10-20 30" stroke="#3498db"/>
    <path d="M286 325c0 0 20 10 20 30" stroke="#3498db"/>
    
    <!-- Camice -->
    <path d="M190 190v180c0 0 20 40 66 40 46 0 66-40 66-40v-180" fill="#f5f5f5"/>
    
    <!-- Croce rossa sul taschino -->
    <rect x="236" y="220" width="40" height="40" rx="5" fill="#f5f5f5" stroke="#e74c3c"/>
    <path d="M246 240h20" stroke="#e74c3c"/>
    <path d="M256 230v20" stroke="#e74c3c"/>
    
    <!-- Colletto -->
    <path d="M220 190l36-20 36 20" fill="#f5f5f5"/>
  </g>
</svg>